# xmcd
#
# Track frame offsets:
#	150
#	11128
#	22276
#	42823
#	56761
#	74598
#	92602
#	129563
#	140880
#	160443
#	176284
#	189249
#	205540
#
# Disc length: 2912 seconds
#
# Revision: 0
# Processed by: cddbd v1.5.2PL0 Copyright (c) Steve Scherf et al.
# Submitted via: EZCDAudioConverter 7.0.0.1
#
DISCID=ba0b5e0d
DTITLE=Angela Aguilar - Primero Soy Mexicana
DYEAR=1900
DGENRE=
TTITLE0=Ya no me interesas
TTITLE1=Coranzocito Tirano
TTITLE2=Cielito Lindo
TTITLE3=La Tequilera
TTITLE4=Cielo Rojo
TTITLE5=Tu Sangre en mi Cuerpo
TTITLE6=La Llorona
TTITLE7=La Basurita
TTITLE8=Cucurrucú Paloma
TTITLE9=Paloma Negra
TTITLE10=Me Gustas Mucho
TTITLE11=La Chancla
TTITLE12=Que Suerte
EXTD=
EXTT0=
EXTT1=
EXTT2=
EXTT3=
EXTT4=
EXTT5=
EXTT6=
EXTT7=
EXTT8=
EXTT9=
EXTT10=
EXTT11=
EXTT12=
PLAYORDER=
